<svg xmlns="http://www.w3.org/2000/svg" viewBox="0 0 279.42 367.54"><defs><style>.cls-1{fill:none;}.cls-2{stroke:#000;stroke-miterlimit:10;stroke-width:1.04px;}</style></defs><g id="Layer_2" data-name="Layer 2"><g id="Layer_1-2" data-name="Layer 1"><path d="M32.7,367.54A39.92,39.92,0,0,1,20,365.63a24.91,24.91,0,0,1-9.8-5.95,26.82,26.82,0,0,1-6.32-10.32,45,45,0,0,1-2.23-15q0-10.79,3.94-18.52A27.14,27.14,0,0,1,16.9,304a34.77,34.77,0,0,1,17-4q10.32,0,17.37,3.8A24.44,24.44,0,0,1,61.91,315q3.56,7.38,3.56,18,0,11.32-4.06,19.1A26.64,26.64,0,0,1,50,363.67,36.7,36.7,0,0,1,32.7,367.54ZM13.62,333q0,14.85,5.19,22.58T34,363.29a17.19,17.19,0,0,0,10.73-3.36,20.06,20.06,0,0,0,6.61-9.84A47,47,0,0,0,53.53,335q0-10.54-2.59-17.48t-7-10.08a17.55,17.55,0,0,0-10.38-3.14,18.45,18.45,0,0,0-9,2,17.13,17.13,0,0,0-6.21,5.77,26.5,26.5,0,0,0-3.6,9.07A57.29,57.29,0,0,0,13.62,333Z"/><path d="M97,354.54a21.81,21.81,0,0,0,.38,4.54,6.58,6.58,0,0,0,1.16,2.68,5.16,5.16,0,0,0,2.12,1.55,23,23,0,0,0,4.17,1.09v2.37H79.39V364.4a13.26,13.26,0,0,0,4.82-1.72A4.44,4.44,0,0,0,85.8,360a27.39,27.39,0,0,0,.38-5.32V312.86a29.3,29.3,0,0,0-.29-4.86,5.52,5.52,0,0,0-1-2.37,4.69,4.69,0,0,0-1.77-1.35,21.92,21.92,0,0,0-3.77-1.14v-2.37h28.77q13.57,0,20.21,4.33T135,318.28a19.21,19.21,0,0,1-2.09,9,17.58,17.58,0,0,1-5.91,6.57,25.86,25.86,0,0,1-9.05,3.68,52.56,52.56,0,0,1-11,1.11q-6.44,0-10-.2Zm0-20.07h6.73a34.69,34.69,0,0,0,10.82-1.42,12.35,12.35,0,0,0,6.52-4.74,15.28,15.28,0,0,0,2.26-8.78,16,16,0,0,0-1.33-6.94,11.64,11.64,0,0,0-3.68-4.47,15,15,0,0,0-5.6-2.39,33.29,33.29,0,0,0-7.07-.7q-5.74,0-8.65.19Z"/><path d="M164.53,338.1v16.44a28.48,28.48,0,0,0,.32,5,5.52,5.52,0,0,0,1,2.37,4.63,4.63,0,0,0,1.74,1.3,21.92,21.92,0,0,0,3.77,1.14v2.37H146.84V364.4a13.19,13.19,0,0,0,4.82-1.72,4.44,4.44,0,0,0,1.59-2.68,27.39,27.39,0,0,0,.38-5.32V312.86a29.3,29.3,0,0,0-.29-4.86,5.4,5.4,0,0,0-1-2.37,4.69,4.69,0,0,0-1.77-1.35,21.92,21.92,0,0,0-3.77-1.14v-2.37h28.71q13.57,0,20.3,4.11t6.73,12.77a15.8,15.8,0,0,1-4.38,11.26q-4.38,4.65-13.14,7.25v.39a17.5,17.5,0,0,1,6.06,3.46,35.08,35.08,0,0,1,5.6,7l5.22,7.93a46,46,0,0,0,3.89,5.32,13.16,13.16,0,0,0,3.3,2.8,12.36,12.36,0,0,0,4.47,1.36v2.37H197.53a57.21,57.21,0,0,1-4.17-5.51c-1.32-2-2.61-4-3.89-6l-5.1-8.07a52.08,52.08,0,0,0-3.8-5.42,10.88,10.88,0,0,0-2.73-2.44,8.64,8.64,0,0,0-2.67-1,25.92,25.92,0,0,0-4.26-.26Zm0-32.88v28.72h6.56a44.91,44.91,0,0,0,8.17-.6,16.71,16.71,0,0,0,5.8-2.3,12.26,12.26,0,0,0,4.27-4.71,15.82,15.82,0,0,0,1.59-7.43,14.31,14.31,0,0,0-1.88-7.63,11.79,11.79,0,0,0-5.72-4.65A27.45,27.45,0,0,0,173,305Q167.78,305,164.53,305.22Z"/><path d="M273.74,366.53l-4.52,1L265,363.77a32.75,32.75,0,0,1-7.88,2.85,43.9,43.9,0,0,1-9.46.92q-14.67,0-22.09-8.39t-7.43-24.92a38.5,38.5,0,0,1,4.06-18.08,28.29,28.29,0,0,1,11.66-12A36.55,36.55,0,0,1,251.7,300a101.92,101.92,0,0,1,10.38.51q5,.51,11.08,1.76v13.3h-5.74a20.89,20.89,0,0,0-3.71-6.79,12,12,0,0,0-5.13-3.49,23.53,23.53,0,0,0-7.57-1,18.58,18.58,0,0,0-11.08,3.38,21.77,21.77,0,0,0-7.4,10,42.92,42.92,0,0,0-2.63,15.93,51.66,51.66,0,0,0,2.23,16.2q2.24,6.72,6.64,10.13a17.2,17.2,0,0,0,10.84,3.41q6.86,0,10.15-2.49t3.31-7.67v-2.9a25.22,25.22,0,0,0-.55-6.28,5.61,5.61,0,0,0-1.94-3,11.85,11.85,0,0,0-4.59-1.74v-2.37h23.43v2.37a10.28,10.28,0,0,0-3.13,1.33,5,5,0,0,0-1.59,1.86,8.58,8.58,0,0,0-.76,2.73,41.12,41.12,0,0,0-.2,4.62Z"/><circle class="cls-1" cx="139.71" cy="140.37" r="139.71"/><path class="cls-1" d="M139.71,5.83a134.55,134.55,0,0,1,95.14,229.68A134.54,134.54,0,1,1,44.58,45.24,133.67,133.67,0,0,1,139.71,5.83m0-5.17A139.72,139.72,0,1,0,279.42,140.37,139.71,139.71,0,0,0,139.71.66Z"/><path class="cls-1" d="M140,3.25s69.86,0,69.86,69.79S140,142.83,140,142.83V3.25Z"/><path class="cls-1" d="M140,145.42h-2.59V.66H140a88.91,88.91,0,0,1,36.09,9c16.58,8.28,36.36,26,36.36,63.38s-19.78,55.09-36.36,63.38A89.1,89.1,0,0,1,140,145.42ZM142.56,6V140.12a85.82,85.82,0,0,0,31.34-8.41C196,120.59,207.24,100.85,207.24,73S196,25.49,173.9,14.36A86,86,0,0,0,142.56,6Z"/><path class="cls-2" d="M139.58,5.75c34.65,0,67.24,14,91.75,39.36a136.26,136.26,0,0,1,38.09,95.26c0,36-13.52,69.83-38.09,95.26S174.23,275,139.58,275s-67.23-14-91.75-39.37A136.27,136.27,0,0,1,9.74,140.37,136.3,136.3,0,0,1,47.83,45.11c24.52-25.38,57.1-39.36,91.75-39.36m0-5.09C65.07.66,4.66,63.21,4.66,140.37S65.07,280.09,139.58,280.09s134.93-62.56,134.93-139.72S214.1.66,139.58.66Z"/><path d="M139.71,5.67c33.64,0,65.28,14,89.1,39.34s37.06,59.32,37.06,95.36-13.16,69.91-37.06,95.36-55.46,39.34-89.1,39.34-65.28-14-89.1-39.34-37.06-59.32-37.06-95.36S26.71,70.47,50.61,45s55.46-39.34,89.1-39.34m0-5C67.27.66,8.54,63.21,8.54,140.37S67.27,280.09,139.71,280.09s131.18-62.56,131.18-139.72S212.16.66,139.71.66Z"/><path class="cls-2" d="M140,145.45H137.3V.52H140a99.86,99.86,0,0,1,38.39,9c17.7,8.28,38.8,26,38.8,63.48s-21.1,55.2-38.8,63.49A100.07,100.07,0,0,1,140,145.45ZM142.64,6V140a97,97,0,0,0,33.61-8.43c23.6-11.12,35.56-30.82,35.56-58.58s-12-47.46-35.56-58.57A96.72,96.72,0,0,0,142.64,6Z"/><path d="M140.1,145.53h-2.76V.43h2.76a112.15,112.15,0,0,1,40.76,9c18.84,8.29,41.3,26.05,41.3,63.59s-22.46,55.3-41.3,63.59A111.91,111.91,0,0,1,140.1,145.53ZM142.86,6.05V139.91c6-.36,21.09-1.89,35.93-8.45,25.12-11.11,37.85-30.78,37.85-58.48s-12.78-47.45-38-58.54A108.54,108.54,0,0,0,142.86,6.05Z"/><path d="M140.1,2.15v0Z"/><rect x="134.93" y="2.15" width="10.35" height="276.89"/><path d="M140,5.67c33,0,64,14,87.4,39.34s36.35,59.32,36.35,95.36-12.91,69.91-36.35,95.36S173,275.07,140,275.07s-64-14-87.4-39.34-36.35-59.32-36.35-95.36S29.13,70.47,52.57,45,107,5.67,140,5.67m0-5C68.91.66,11.3,63.21,11.3,140.37S68.91,280.09,140,280.09s128.67-62.56,128.67-139.72S211,.66,140,.66Z"/></g></g></svg>